<svg width="18" height="19" viewBox="0 0 18 19" fill="none" xmlns="http://www.w3.org/2000/svg">
<path fill-rule="evenodd" clip-rule="evenodd" d="M1.16663 9.5C1.16663 5.17377 4.67373 1.66666 8.99996 1.66666C13.3262 1.66666 16.8333 5.17377 16.8333 9.5C16.8333 13.8262 13.3262 17.3333 8.99996 17.3333C4.67373 17.3333 1.16663 13.8262 1.16663 9.5ZM8.99996 0.666664C4.12144 0.666664 0.166626 4.62148 0.166626 9.5C0.166626 14.3785 4.12144 18.3333 8.99996 18.3333C13.8785 18.3333 17.8333 14.3785 17.8333 9.5C17.8333 4.62148 13.8785 0.666664 8.99996 0.666664ZM10.1868 6.64644C9.99158 6.45118 9.675 6.45118 9.47974 6.64644C9.28448 6.84171 9.28448 7.15829 9.47974 7.35355L11.1262 9H5.66663C5.39048 9 5.16663 9.22386 5.16663 9.5C5.16663 9.77614 5.39048 10 5.66663 10H11.1262L9.47974 11.6464C9.28448 11.8417 9.28448 12.1583 9.47974 12.3536C9.675 12.5488 9.99158 12.5488 10.1868 12.3536L12.6868 9.85355C12.7806 9.75978 12.8333 9.63261 12.8333 9.5C12.8333 9.36739 12.7806 9.24021 12.6868 9.14644L10.1868 6.64644Z" fill="white"/>
</svg>
