<svg width="18" height="19" viewBox="0 0 18 19" fill="none" xmlns="http://www.w3.org/2000/svg">
<g clip-path="url(#clip0)">
<path d="M5.50423 8.06373L8.99996 4.568L12.4973 8.06524L14.5313 6.03125L8.99996 0.500015L3.47039 6.02959L5.50431 8.06358L5.50423 8.06373ZM0 9.49998L2.03406 7.46563L4.06798 9.49955L2.03392 11.5336L0 9.49998ZM5.50423 10.9364L8.99996 14.432L12.4973 10.9348L14.5323 12.9677L14.5313 12.9688L8.99996 18.4999L3.47039 12.9704L3.46751 12.9675L5.50445 10.9362L5.50423 10.9364ZM13.9319 9.50084L15.966 7.46678L17.9999 9.5007L15.9659 11.5348L13.9319 9.50084Z" fill="#F3BA2F"/>
<path d="M11.0638 9.49881H11.0647L9.00087 7.43484L7.47542 8.95988L7.30017 9.1352L6.93873 9.49672L6.93585 9.49953L6.93873 9.50248L9.00087 11.5649L11.0648 9.50097L11.0658 9.49981L11.0639 9.49881" fill="#F3BA2F"/>
</g>
<defs>
<clipPath id="clip0">
<rect width="18" height="17.9999" fill="white" transform="translate(0 0.500015)"/>
</clipPath>
</defs>
</svg>
