<svg width="20" height="21" viewBox="0 0 20 21" fill="none" xmlns="http://www.w3.org/2000/svg">
<path fill-rule="evenodd" clip-rule="evenodd" d="M4.64645 5.14645C4.84171 4.95118 5.15829 4.95118 5.35355 5.14645L10 9.79289L14.6464 5.14645C14.8417 4.95118 15.1583 4.95118 15.3536 5.14645C15.5488 5.34171 15.5488 5.65829 15.3536 5.85355L10.7071 10.5L15.3536 15.1464C15.5488 15.3417 15.5488 15.6583 15.3536 15.8536C15.1583 16.0488 14.8417 16.0488 14.6464 15.8536L10 11.2071L5.35355 15.8536C5.15829 16.0488 4.84171 16.0488 4.64645 15.8536C4.45118 15.6583 4.45118 15.3417 4.64645 15.1464L9.29289 10.5L4.64645 5.85355C4.45118 5.65829 4.45118 5.34171 4.64645 5.14645Z" fill="#EB0029"/>
</svg>
