<svg width="18" height="18" viewBox="0 0 18 18" fill="none" xmlns="http://www.w3.org/2000/svg">
<g clip-path="url(#clip0)">
<path fill-rule="evenodd" clip-rule="evenodd" d="M6.96793 7.89507L8.97751 12.3518L11.9685 10.6276L11.9707 10.6267V7.17566L6.96793 7.89507Z" fill="#2BBDF7"/>
<path fill-rule="evenodd" clip-rule="evenodd" d="M15.8412 4.58834L13.9743 3.88516L11.9792 3.724V14.4486L14.9724 16.1737L17.3349 11.3388L15.8448 6.66365L15.8412 4.58834Z" fill="#2891F9"/>
<path fill-rule="evenodd" clip-rule="evenodd" d="M15.6533 3.72791L14.96 5.45254H14.9591V16.1758L17.9528 14.4511V3.72791H15.6533Z" fill="#2BBDF7"/>
<path fill-rule="evenodd" clip-rule="evenodd" d="M14.9728 2L11.9792 3.72598L14.9728 5.45151L17.9665 3.72598L14.9728 2Z" fill="#2B6DEF"/>
<path fill-rule="evenodd" clip-rule="evenodd" d="M8.98015 8.90014V8.89925L5.98691 5.54992L0 3.724V14.4472L2.99278 16.1727L3.8481 10.2385L5.98691 10.627V10.6252L8.98059 12.3503V8.90014H8.98015Z" fill="#2891F9"/>
<path fill-rule="evenodd" clip-rule="evenodd" d="M2.99458 2L0 3.72553L8.97922 8.90347L10.3361 8.12152L11.9725 7.17751L2.99458 2Z" fill="#2B6DEF"/>
<path fill-rule="evenodd" clip-rule="evenodd" d="M2.99473 8.89978H2.99428V16.1719L5.98794 14.4469V10.6253L2.99473 8.89978Z" fill="#2BBDF7"/>
</g>
<defs>
<clipPath id="clip0">
<rect width="18" height="14.1773" fill="white" transform="translate(0 2)"/>
</clipPath>
</defs>
</svg>
