<svg width="44" height="9" viewBox="0 0 44 9" fill="none" xmlns="http://www.w3.org/2000/svg">
<path d="M1 6.2C1.52 6.2 1.96 5.78 2 5.28L8 1.68V0.32L1.4 4.28C1.28 4.24 1.14 4.2 1 4.2C0.46 4.2 0 4.66 0 5.2C0 5.74 0.46 6.2 1 6.2Z" fill="#1DB736"/>
<path d="M7.99219 0C7.45219 0 6.99219 0.46 6.99219 1C6.99219 1.54 7.45219 2 7.99219 2C8.09219 2 8.19219 1.98 8.29219 1.96L14.9922 7.04V5.6L8.99219 1.04V1C8.99219 0.46 8.53219 0 7.99219 0Z" fill="#1DB736"/>
<path d="M14.9844 7.32C15.3244 7.32 15.6444 7.14 15.8244 6.84L21.9844 6.48V5.32L15.7444 5.7C15.5644 5.46 15.2844 5.32 14.9844 5.32C14.4444 5.32 13.9844 5.78 13.9844 6.32C13.9844 6.86 14.4444 7.32 14.9844 7.32Z" fill="#1DB736"/>
<path d="M21.9766 6.9C22.4166 6.9 22.8166 6.58 22.9366 6.18L28.9766 3.88V2.6L22.4966 5.06C22.3566 4.96 22.1766 4.9 21.9766 4.9C21.4366 4.9 20.9766 5.36 20.9766 5.9C20.9766 6.44 21.4366 6.9 21.9766 6.9Z" fill="#1DB736"/>
<path d="M28.9688 2.24C28.4288 2.24 27.9688 2.7 27.9688 3.24C27.9688 3.78 28.4288 4.24 28.9688 4.24C29.1088 4.24 29.2287 4.22 29.3487 4.16L35.9688 8.4V7.04L29.9688 3.2C29.9688 2.7 29.5088 2.24 28.9688 2.24Z" fill="#1DB736"/>
<path d="M35.9609 8.72C36.3409 8.72 36.6809 8.48 36.8609 8.16L42.9609 7.06V5.86L36.6409 7C36.4609 6.82 36.2209 6.72 35.9609 6.72C35.4209 6.72 34.9609 7.18 34.9609 7.72C34.9609 8.26 35.4209 8.72 35.9609 8.72Z" fill="#1DB736"/>
<path d="M42.9531 7.46C43.4931 7.46 43.9531 7 43.9531 6.46C43.9531 5.92 43.4931 5.46 42.9531 5.46C42.4131 5.46 41.9531 5.92 41.9531 6.46C41.9531 7 42.4131 7.46 42.9531 7.46Z" fill="#1DB736"/>
</svg>
