<svg width="18" height="18" viewBox="0 0 18 18" fill="none" xmlns="http://www.w3.org/2000/svg">
<g clip-path="url(#clip0)">
<path d="M9.00152 0C4.03012 0 0 4.03012 0 9.00152C0 13.9729 4.03012 18.003 9.00152 18.003C13.9729 18.003 18.003 13.9729 18.003 9.00152C18.003 4.03012 13.9729 0 9.00152 0ZM6.75038 12.1117L6.66509 12.197C6.48841 12.3737 6.29954 12.5412 6.10459 12.6966L5.87917 12.8732C5.86394 12.8854 5.84566 12.8915 5.82738 12.8915C5.81215 12.8915 5.79692 12.8885 5.78473 12.8793C5.75427 12.8611 5.73904 12.8275 5.74818 12.791L5.83652 12.3919C5.934 11.9594 5.91268 11.5055 5.7756 11.0821L5.72686 10.9359C5.67203 10.7653 5.60501 10.5977 5.53495 10.4332L4.49619 7.98105L4.38348 7.64596C4.34997 7.54239 4.3256 7.43578 4.31342 7.32611L4.29514 7.15857C4.24336 6.68641 4.40481 6.22339 4.73989 5.88831L4.82518 5.80301C5.00186 5.62633 5.19073 5.45879 5.38568 5.30344L5.6111 5.12676C5.63852 5.10543 5.67507 5.10239 5.70553 5.12066C5.736 5.13894 5.75123 5.17245 5.74209 5.209L5.65375 5.60806C5.55627 6.04062 5.57759 6.4945 5.71467 6.91792L5.76341 7.06414C5.81824 7.23473 5.88526 7.40227 5.95532 7.56676L6.99712 10.019L7.10983 10.354C7.14334 10.4576 7.16771 10.5642 7.17989 10.6739L7.19817 10.8414C7.24691 11.3105 7.08546 11.7766 6.75038 12.1117ZM10.2657 12.9159L10.156 13.0256C9.93366 13.2479 9.69606 13.4612 9.44931 13.6531L9.15688 13.8846C9.14165 13.8968 9.12032 13.9029 9.10205 13.9029C9.08682 13.9029 9.06854 13.8968 9.05331 13.8876C9.0198 13.8663 9.00457 13.8297 9.01371 13.7932L9.12946 13.2784C9.25131 12.7301 9.2239 12.1574 9.05026 11.6243L8.98934 11.4385C8.91928 11.2222 8.83703 11.009 8.74564 10.8018L7.43273 7.70993L7.2926 7.28956C7.24996 7.16162 7.21949 7.02454 7.20426 6.89051L7.17989 6.67727C7.11288 6.08631 7.31697 5.50753 7.7343 5.08411L7.84397 4.97445C8.06634 4.75207 8.30394 4.53884 8.55068 4.34693L8.84312 4.11542C8.87358 4.09105 8.91318 4.088 8.94669 4.10932C8.9802 4.13065 8.99543 4.1672 8.98629 4.20376L8.87054 4.71856C8.74869 5.26688 8.7761 5.83957 8.94974 6.37265L9.01066 6.55847C9.08072 6.7717 9.16297 6.98798 9.25436 7.19513L10.5673 10.2901L10.7074 10.7104C10.75 10.8384 10.7805 10.9755 10.7957 11.1095L10.8201 11.3227C10.8871 11.9137 10.683 12.4955 10.2657 12.9159ZM13.2632 12.1117L13.1779 12.197C13.0012 12.3737 12.8123 12.5412 12.6174 12.6966L12.3919 12.8732C12.3767 12.8854 12.3584 12.8915 12.3402 12.8915C12.3249 12.8915 12.3097 12.8885 12.2975 12.8793C12.267 12.8611 12.2518 12.8275 12.261 12.791L12.3493 12.3919C12.4468 11.9594 12.4255 11.5055 12.2884 11.0821L12.2396 10.9359C12.1848 10.7653 12.1178 10.5977 12.0477 10.4332L11.0059 7.98105L10.8932 7.64596C10.8597 7.54239 10.8353 7.43578 10.8231 7.32611L10.8049 7.15857C10.7531 6.68641 10.9145 6.22339 11.2496 5.88831L11.3349 5.80301C11.5116 5.62633 11.7005 5.45879 11.8954 5.30344L12.1208 5.12676C12.1482 5.10543 12.1848 5.10239 12.2153 5.12066C12.2457 5.13894 12.261 5.17245 12.2518 5.209L12.1635 5.60806C12.066 6.04062 12.0873 6.4945 12.2244 6.91792L12.2731 7.06414C12.328 7.23473 12.395 7.40227 12.4651 7.56676L13.5069 10.019L13.6196 10.354C13.6531 10.4576 13.6774 10.5642 13.6896 10.6739L13.7079 10.8414C13.7597 11.3105 13.5982 11.7766 13.2632 12.1117Z" fill="#171FC9"/>
</g>
<defs>
<clipPath id="clip0">
<rect width="18" height="18" fill="white"/>
</clipPath>
</defs>
</svg>
