<svg xmlns="http://www.w3.org/2000/svg" viewBox="0 0 123.76 123.76" height="123.76" width="123.76">
  <path d="M93.94 56.67l7.212-23.424H72.599l5.164-8.11-12.675 8.11H31.737l-7.154 23.425H49.29L45.65 68.8 30.184 91.28l11.172-8.471-.387 1.475-5.098 15.183h27.307l9.82-40.668 2.81-2.13zM61.314 4.743c31.192 0 56.568 25.373 56.568 56.551 0 31.192-25.376 56.563-56.568 56.563-31.188 0-56.564-25.371-56.564-56.563 0-31.178 25.376-56.55 56.564-56.55" />
  <path d="M35.447 49.909l19.508-12.455-20.922-.057-4.84 15.688 13.928.089zm24.35 44.994l7.283-27.8-21.632 16.848-3.511 10.952zM41.554 79.365l32.517-24.65-14.372-6.031.892-1.427 8.568-13.442.066-.123L44.593 49.46l12.89 6.735zm49.858-26.191l5.128-15.777H73.723l-6.3 10.287 14.367 5.42zm9.74-19.928L93.94 56.671H75.807l-2.81 2.129-9.82 40.668H35.87l5.098-15.183.387-1.475-11.172 8.471L45.65 68.8l3.639-12.13H24.583l7.154-23.424h33.351l12.675-8.11-5.164 8.11h28.553" />
  <path d="M96.54 37.397l-5.128 15.777-9.622-.07-14.368-5.42 6.301-10.287H96.54" />
  <path d="M74.07 54.715l-32.516 24.65 15.93-23.17-12.89-6.735 24.63-15.768-.065.123-8.568 13.442-.892 1.427 14.372 6.031M67.08 67.103l-7.283 27.8h-17.86l3.511-10.952L67.08 67.103" />
  <path d="M54.955 37.454L35.447 49.91l7.674 3.265-13.929-.09 4.84-15.687 20.923.057" />
</svg>
